# xmcd CD database file
#
# Track frame offsets:
#	150
#	19433
#	33313
#	44289
#	55169
#	67126
#	79333
#	98459
#	113120
#	125576
#	137427
#	151041
#	165776
#	176992
#	189063
#	201489
#	213648
#
# Disc length: 3004 seconds
#
# Revision: 0
# Processed by: cddbd v1.5.2PL0 Copyright (c) Steve Scherf et al.
# Submitted via: CDex 2.23
#
DISCID=e60bba11
DTITLE=Various Artist - '60s Country: Cryin' Time [Disc 1]
DYEAR=1900
DGENRE=Country
TTITLE0=Ray Charles - I Can't Stop Loving You
TTITLE1=Glen Campbell - Wichita Lineman
TTITLE2=Buck Owens - Together Again
TTITLE3=George Jones - Tender Years
TTITLE4=Loretta Lynn - Success
TTITLE5=Roy Drusky - Another
TTITLE6=Bobbie Gentry - Ode to Billy Joe
TTITLE7=Jeannie C. Riley - Harper Valley P.T.A.
TTITLE8=Sonny James - Running Bear
TTITLE9=Roger Miller - Little Green Apples
TTITLE10=Patsy Cline - She's Got You
TTITLE11=Ray Charles - You Don't Know Me
TTITLE12=Buck Owens - Cryin' Time
TTITLE13=Del Reeves - Girl on the Billboard
TTITLE14=Bill Anderson - Po' Folks
TTITLE15=Loretta Lynn - Blue Kentucky Girl
TTITLE16=The Osborne Brothers - Rocky Top
EXTD=
EXTT0=
EXTT1=
EXTT2=
EXTT3=
EXTT4=
EXTT5=
EXTT6=
EXTT7=
EXTT8=
EXTT9=
EXTT10=
EXTT11=
EXTT12=
EXTT13=
EXTT14=
EXTT15=
EXTT16=
PLAYORDER=
